<?xml version="1.0" encoding="UTF-8"?>
<svg xmlns="http://www.w3.org/2000/svg" xmlns:xlink="http://www.w3.org/1999/xlink" width="360px" height="380px" viewBox="0 0 360 379" version="1.1">
<g id="surface1">
<path style=" stroke:none;fill-rule:nonzero;fill:rgb(94.901961%,94.901961%,94.901961%);fill-opacity:1;" d="M 264.296875 364.984375 L 241.898438 350.714844 L 271.074219 359.050781 C 289.402344 341.574219 302.828125 317.359375 302.828125 317.359375 C 302.828125 317.359375 253.738281 287.4375 223.5 295.421875 C 193.261719 303.40625 187.460938 324.136719 193.328125 346.273438 C 199.191406 368.40625 214.503906 383.5625 244.742188 375.578125 C 251.472656 373.800781 258.082031 369.925781 264.296875 364.984375 Z M 264.296875 364.984375 "/>
<path style=" stroke:none;fill-rule:nonzero;fill:rgb(100%,100%,100%);fill-opacity:1;" d="M 239.671875 346.109375 L 238.179688 346.503906 C 220.832031 350.988281 206.542969 351.644531 195.507812 348.433594 C 195.34375 348.390625 195.1875 348.335938 195.027344 348.292969 L 195.25 347.546875 L 195.46875 346.835938 C 207.429688 350.46875 222.554688 348.878906 237.6875 344.972656 C 238.175781 344.851562 238.671875 344.726562 239.164062 344.589844 C 245.554688 342.878906 251.925781 340.777344 258.042969 338.492188 C 258.519531 338.320312 259 338.136719 259.480469 337.957031 C 267.542969 334.898438 275.136719 331.550781 281.683594 328.453125 C 282.144531 328.234375 282.605469 328.011719 283.0625 327.789062 C 294.117188 322.496094 301.953125 318.007812 303.679688 317 C 303.894531 316.882812 304.011719 316.8125 304.039062 316.796875 L 304.421875 317.445312 L 304.433594 317.449219 L 304.820312 318.105469 C 304.789062 318.117188 304.402344 318.355469 303.675781 318.769531 C 300.964844 320.328125 293.574219 324.46875 283.644531 329.242188 C 283.195312 329.457031 282.734375 329.679688 282.269531 329.898438 C 276.960938 332.417969 270.992188 335.089844 264.652344 337.628906 C 263.0625 338.269531 261.488281 338.882812 259.929688 339.46875 C 259.449219 339.65625 258.96875 339.839844 258.496094 340.011719 C 251.878906 342.484375 245.605469 344.515625 239.671875 346.109375 Z M 239.671875 346.109375 "/>
<path style=" stroke:none;fill-rule:nonzero;fill:rgb(100%,100%,100%);fill-opacity:1;" d="M 283.644531 329.242188 C 283.445312 328.765625 283.246094 328.285156 283.0625 327.789062 C 282.554688 326.445312 282.113281 325.078125 281.746094 323.691406 C 280.171875 317.78125 279.945312 311.59375 281.085938 305.582031 C 280.613281 305.378906 280.136719 305.171875 279.65625 304.960938 C 278.398438 311.296875 278.609375 317.835938 280.269531 324.082031 C 280.664062 325.5625 281.132812 327.019531 281.683594 328.453125 C 281.867188 328.941406 282.066406 329.421875 282.269531 329.898438 C 283.933594 333.816406 286.1875 337.460938 288.945312 340.703125 C 289.269531 340.28125 289.585938 339.863281 289.894531 339.460938 C 287.320312 336.378906 285.210938 332.9375 283.644531 329.242188 Z M 283.644531 329.242188 "/>
<path style=" stroke:none;fill-rule:nonzero;fill:rgb(100%,100%,100%);fill-opacity:1;" d="M 259.929688 339.46875 C 259.765625 338.96875 259.617188 338.464844 259.480469 337.957031 C 259.433594 337.804688 259.390625 337.640625 259.347656 337.484375 C 255.902344 324.484375 259.050781 310.617188 267.773438 300.367188 C 267.257812 300.1875 266.746094 300.007812 266.226562 299.835938 C 257.464844 310.433594 254.355469 324.59375 257.875 337.875 C 257.929688 338.082031 257.984375 338.289062 258.042969 338.492188 C 258.1875 339.007812 258.339844 339.511719 258.496094 340.011719 C 260.984375 347.769531 265.65625 354.648438 271.957031 359.824219 C 272.328125 359.472656 272.703125 359.121094 273.074219 358.765625 C 266.902344 353.746094 262.335938 347.039062 259.929688 339.46875 Z M 259.929688 339.46875 "/>
<path style=" stroke:none;fill-rule:nonzero;fill:rgb(100%,100%,100%);fill-opacity:1;" d="M 239.671875 346.109375 C 239.488281 345.605469 239.324219 345.097656 239.164062 344.589844 C 238.996094 344.042969 238.835938 343.492188 238.6875 342.941406 C 234.023438 325.253906 241.59375 306.613281 257.285156 297.164062 C 256.597656 296.988281 255.921875 296.8125 255.238281 296.65625 C 239.777344 306.707031 232.515625 325.519531 237.214844 343.332031 C 237.359375 343.882812 237.511719 344.433594 237.6875 344.972656 C 237.839844 345.488281 238.007812 345.996094 238.179688 346.503906 C 241.757812 356.703125 249.082031 365.164062 258.671875 370.171875 C 259.175781 369.875 259.667969 369.554688 260.167969 369.234375 C 250.582031 364.480469 243.230469 356.183594 239.671875 346.109375 Z M 239.671875 346.109375 "/>
<path style=" stroke:none;fill-rule:nonzero;fill:rgb(24.705882%,23.921569%,33.72549%);fill-opacity:1;" d="M 210.035156 376.308594 L 99.273438 331.804688 C 85.453125 326.234375 78.761719 310.550781 84.308594 296.742188 L 197.160156 16.886719 C 202.742188 3.09375 218.457031 -3.589844 232.289062 1.949219 L 343.050781 46.453125 C 356.871094 52.023438 363.5625 67.710938 358.015625 81.515625 L 245.164062 361.371094 C 239.582031 375.167969 223.867188 381.847656 210.035156 376.308594 Z M 210.035156 376.308594 "/>
<path style=" stroke:none;fill-rule:nonzero;fill:rgb(100%,100%,100%);fill-opacity:1;" d="M 338.679688 53.714844 L 326.351562 48.761719 C 324.058594 47.84375 321.457031 48.953125 320.53125 51.238281 C 318.640625 55.910156 313.316406 58.175781 308.628906 56.296875 L 248.332031 32.070312 C 243.648438 30.183594 241.382812 24.871094 243.261719 20.191406 C 244.183594 17.902344 243.074219 15.304688 240.78125 14.382812 L 229.910156 10.015625 C 219.421875 5.8125 207.503906 10.882812 203.269531 21.34375 L 91.222656 299.207031 C 87.011719 309.679688 92.089844 321.578125 102.570312 325.804688 L 211.339844 369.503906 C 221.832031 373.703125 233.746094 368.636719 237.980469 358.175781 L 350.03125 80.308594 C 354.238281 69.839844 349.160156 57.941406 338.679688 53.714844 Z M 338.679688 53.714844 "/>
<path style=" stroke:none;fill-rule:nonzero;fill:rgb(100%,100%,100%);fill-opacity:1;" d="M 296.503906 43.253906 L 262.488281 29.585938 C 261.816406 29.316406 261.492188 28.554688 261.761719 27.882812 C 262.03125 27.214844 262.792969 26.890625 263.464844 27.160156 L 297.480469 40.828125 C 298.152344 41.097656 298.476562 41.859375 298.207031 42.527344 C 297.9375 43.199219 297.175781 43.523438 296.503906 43.253906 Z M 296.503906 43.253906 "/>
<path style=" stroke:none;fill-rule:nonzero;fill:rgb(100%,100%,100%);fill-opacity:1;" d="M 303.386719 44.1875 C 303.386719 44.765625 302.917969 45.234375 302.339844 45.234375 C 301.761719 45.234375 301.289062 44.765625 301.289062 44.1875 C 301.289062 43.609375 301.761719 43.140625 302.339844 43.140625 C 302.917969 43.140625 303.386719 43.609375 303.386719 44.1875 Z M 303.386719 44.1875 "/>
<path style=" stroke:none;fill-rule:nonzero;fill:rgb(24.705882%,23.921569%,33.72549%);fill-opacity:1;" d="M 324.566406 167.261719 C 323.359375 166.777344 322.777344 165.40625 323.261719 164.203125 L 340.472656 121.515625 C 340.960938 120.308594 342.332031 119.726562 343.539062 120.210938 C 344.746094 120.695312 345.332031 122.066406 344.847656 123.269531 L 327.632812 165.957031 C 327.144531 167.164062 325.773438 167.746094 324.566406 167.261719 Z M 324.566406 167.261719 "/>
<path style=" stroke:none;fill-rule:nonzero;fill:rgb(24.705882%,23.921569%,33.72549%);fill-opacity:1;" d="M 175.457031 70.710938 C 174.25 70.226562 173.664062 68.855469 174.148438 67.652344 L 178.0625 57.949219 C 178.375 57.167969 179.082031 56.613281 179.917969 56.496094 C 180.75 56.375 181.585938 56.710938 182.105469 57.375 C 182.625 58.035156 182.75 58.925781 182.433594 59.707031 L 178.523438 69.410156 C 178.035156 70.613281 176.664062 71.195312 175.457031 70.710938 Z M 175.457031 70.710938 "/>
<path style=" stroke:none;fill-rule:nonzero;fill:rgb(24.705882%,23.921569%,33.72549%);fill-opacity:1;" d="M 168.21875 88.660156 C 167.011719 88.175781 166.425781 86.804688 166.910156 85.597656 L 170.824219 75.898438 C 171.136719 75.117188 171.84375 74.5625 172.679688 74.441406 C 173.515625 74.324219 174.347656 74.660156 174.867188 75.320312 C 175.386719 75.984375 175.515625 76.875 175.199219 77.65625 L 171.285156 87.355469 C 170.796875 88.5625 169.425781 89.144531 168.21875 88.660156 Z M 168.21875 88.660156 "/>
<path style=" stroke:none;fill-rule:nonzero;fill:rgb(24.705882%,23.921569%,33.72549%);fill-opacity:1;" d="M 272.148438 129.863281 L 225.09375 110.957031 C 223.085938 110.144531 222.113281 107.867188 222.917969 105.859375 L 234.210938 77.855469 C 235.023438 75.851562 237.308594 74.882812 239.316406 75.683594 L 286.371094 94.589844 C 288.378906 95.398438 289.351562 97.679688 288.546875 99.683594 L 277.253906 127.691406 C 276.441406 129.691406 274.160156 130.664062 272.148438 129.863281 Z M 238.523438 77.652344 C 237.601562 77.285156 236.558594 77.730469 236.183594 78.648438 L 224.890625 106.652344 C 224.523438 107.570312 224.96875 108.617188 225.890625 108.988281 L 272.9375 127.890625 C 273.863281 128.257812 274.90625 127.816406 275.28125 126.894531 L 286.574219 98.894531 C 286.941406 97.972656 286.496094 96.929688 285.574219 96.558594 Z M 238.523438 77.652344 "/>
<path style=" stroke:none;fill-rule:nonzero;fill:rgb(24.705882%,23.921569%,33.72549%);fill-opacity:1;" d="M 272.425781 112.042969 L 236.101562 97.449219 C 235.066406 97.027344 234.402344 96.003906 234.445312 94.890625 L 235.128906 77.90625 C 235.164062 77.050781 235.613281 76.261719 236.335938 75.792969 C 237.058594 75.328125 237.964844 75.238281 238.765625 75.558594 L 286.832031 94.777344 C 288.183594 95.316406 288.847656 96.847656 288.3125 98.203125 L 288.46875 98.359375 L 286.964844 99.855469 L 286.960938 99.855469 L 275.285156 111.460938 C 274.535156 112.210938 273.410156 112.4375 272.425781 112.042969 Z M 272.425781 112.042969 "/>
<path style=" stroke:none;fill-rule:nonzero;fill:rgb(24.705882%,23.921569%,33.72549%);fill-opacity:1;" d="M 245.152344 113.277344 L 228.996094 106.789062 C 228.167969 106.453125 227.769531 105.511719 228.101562 104.6875 C 228.433594 103.859375 229.378906 103.457031 230.207031 103.792969 L 246.359375 110.28125 C 247.1875 110.613281 247.589844 111.554688 247.257812 112.382812 C 246.921875 113.210938 245.980469 113.609375 245.152344 113.277344 Z M 245.152344 113.277344 "/>
<path style=" stroke:none;fill-rule:nonzero;fill:rgb(100%,100%,100%);fill-opacity:1;" d="M 259.109375 103.957031 C 259.109375 106.136719 257.335938 107.90625 255.152344 107.90625 C 252.96875 107.90625 251.199219 106.136719 251.199219 103.957031 C 251.199219 101.777344 252.96875 100.011719 255.152344 100.011719 C 257.335938 100.011719 259.109375 101.777344 259.109375 103.957031 Z M 259.109375 103.957031 "/>
<path style=" stroke:none;fill-rule:nonzero;fill:rgb(24.705882%,23.921569%,33.72549%);fill-opacity:1;" d="M 201.984375 303.855469 L 154.933594 284.953125 C 152.925781 284.140625 151.953125 281.859375 152.753906 279.855469 L 164.046875 251.847656 C 164.863281 249.847656 167.144531 248.875 169.15625 249.675781 L 216.207031 268.582031 C 218.214844 269.394531 219.1875 271.671875 218.382812 273.679688 L 207.089844 301.683594 C 206.277344 303.6875 203.996094 304.65625 201.984375 303.855469 Z M 168.363281 251.648438 C 167.441406 251.28125 166.394531 251.726562 166.019531 252.644531 L 154.730469 280.644531 C 154.363281 281.566406 154.808594 282.609375 155.726562 282.980469 L 202.777344 301.886719 C 203.699219 302.253906 204.746094 301.808594 205.117188 300.890625 L 216.410156 272.886719 C 216.777344 271.96875 216.332031 270.921875 215.414062 270.550781 Z M 168.363281 251.648438 "/>
<path style=" stroke:none;fill-rule:nonzero;fill:rgb(24.705882%,23.921569%,33.72549%);fill-opacity:1;" d="M 202.265625 286.035156 L 202.261719 286.035156 L 165.941406 271.441406 C 164.902344 271.023438 164.238281 270 164.28125 268.882812 L 164.964844 251.902344 C 165 251.042969 165.453125 250.253906 166.175781 249.789062 C 166.898438 249.320312 167.800781 249.234375 168.601562 249.550781 L 216.667969 268.769531 C 218.023438 269.3125 218.683594 270.839844 218.148438 272.195312 L 218.308594 272.351562 L 216.800781 273.851562 L 205.121094 285.457031 C 204.371094 286.203125 203.246094 286.433594 202.265625 286.035156 Z M 202.265625 286.035156 "/>
<path style=" stroke:none;fill-rule:nonzero;fill:rgb(24.705882%,23.921569%,33.72549%);fill-opacity:1;" d="M 174.988281 287.273438 L 158.835938 280.78125 C 158.007812 280.449219 157.605469 279.507812 157.9375 278.679688 C 158.273438 277.851562 159.214844 277.453125 160.042969 277.785156 L 176.199219 284.277344 C 177.027344 284.609375 177.429688 285.550781 177.09375 286.375 C 176.761719 287.203125 175.816406 287.605469 174.988281 287.273438 Z M 174.988281 287.273438 "/>
<path style=" stroke:none;fill-rule:nonzero;fill:rgb(100%,100%,100%);fill-opacity:1;" d="M 188.945312 277.953125 C 188.945312 280.132812 187.175781 281.898438 184.992188 281.898438 C 182.804688 281.898438 181.035156 280.132812 181.035156 277.953125 C 181.035156 275.773438 182.804688 274.003906 184.992188 274.003906 C 187.175781 274.003906 188.945312 275.773438 188.945312 277.953125 Z M 188.945312 277.953125 "/>
<path style=" stroke:none;fill-rule:nonzero;fill:rgb(9.803922%,52.941176%,32.941176%);fill-opacity:1;" d="M 263.878906 189.757812 C 263.878906 213.605469 244.511719 232.933594 220.625 232.933594 C 196.738281 232.933594 177.371094 213.605469 177.371094 189.757812 C 177.371094 165.914062 196.738281 146.585938 220.625 146.585938 C 244.511719 146.585938 263.878906 165.914062 263.878906 189.757812 Z M 263.878906 189.757812 "/>
<path style=" stroke:none;fill-rule:nonzero;fill:rgb(24.705882%,23.921569%,33.72549%);fill-opacity:1;" d="M 237.039062 216.847656 L 189.988281 197.945312 C 187.980469 197.132812 187.007812 194.855469 187.8125 192.847656 L 199.105469 164.839844 C 199.917969 162.839844 202.199219 161.867188 204.210938 162.667969 L 251.261719 181.574219 C 253.269531 182.386719 254.242188 184.664062 253.441406 186.671875 L 242.148438 214.675781 C 241.332031 216.679688 239.050781 217.652344 237.039062 216.847656 Z M 203.417969 164.640625 C 202.496094 164.273438 201.449219 164.71875 201.078125 165.636719 L 189.785156 193.636719 C 189.417969 194.558594 189.863281 195.601562 190.78125 195.976562 L 237.832031 214.878906 C 238.753906 215.246094 239.800781 214.800781 240.175781 213.882812 L 251.464844 185.878906 C 251.832031 184.960938 251.386719 183.917969 250.46875 183.542969 Z M 203.417969 164.640625 "/>
<path style=" stroke:none;fill-rule:nonzero;fill:rgb(24.705882%,23.921569%,33.72549%);fill-opacity:1;" d="M 237.320312 199.03125 L 237.316406 199.027344 L 200.996094 184.433594 C 199.957031 184.015625 199.292969 182.992188 199.335938 181.875 L 200.023438 164.894531 C 200.058594 164.035156 200.507812 163.246094 201.230469 162.78125 C 201.953125 162.3125 202.855469 162.226562 203.65625 162.542969 L 251.726562 181.761719 C 253.078125 182.304688 253.738281 183.835938 253.207031 185.1875 L 253.363281 185.34375 L 251.855469 186.84375 L 240.179688 198.449219 C 239.425781 199.195312 238.300781 199.425781 237.320312 199.03125 Z M 237.320312 199.03125 "/>
<path style=" stroke:none;fill-rule:nonzero;fill:rgb(24.705882%,23.921569%,33.72549%);fill-opacity:1;" d="M 210.042969 200.265625 L 193.890625 193.773438 C 193.0625 193.441406 192.660156 192.5 192.996094 191.671875 C 193.328125 190.847656 194.269531 190.445312 195.097656 190.777344 L 211.253906 197.269531 C 212.082031 197.601562 212.480469 198.542969 212.148438 199.367188 C 211.816406 200.195312 210.875 200.597656 210.042969 200.265625 Z M 210.042969 200.265625 "/>
<path style=" stroke:none;fill-rule:nonzero;fill:rgb(61.960784%,38.039216%,41.568627%);fill-opacity:1;" d="M 103.742188 221.363281 C 103.75 219.691406 103.019531 218.101562 101.738281 217.019531 C 100.460938 215.941406 98.769531 215.480469 97.117188 215.765625 L 87.378906 198.199219 L 82.53125 207.441406 L 92.523438 222.707031 C 93.199219 225.503906 95.867188 227.351562 98.730469 227.011719 C 101.59375 226.667969 103.746094 224.242188 103.742188 221.363281 Z M 103.742188 221.363281 "/>
<path style=" stroke:none;fill-rule:nonzero;fill:rgb(79.215686%,79.215686%,79.215686%);fill-opacity:1;" d="M 97.449219 150.40625 L 87.4375 149.707031 C 87.4375 149.707031 86.203125 149.539062 82.808594 154.910156 C 79.417969 160.277344 67.789062 187.511719 67.789062 187.511719 L 88.160156 217.027344 L 94.78125 210.453125 L 82.949219 186.703125 L 94.289062 170.804688 Z M 97.449219 150.40625 "/>
<path style=" stroke:none;fill-rule:nonzero;fill:rgb(61.960784%,38.039216%,41.568627%);fill-opacity:1;" d="M 207.859375 182.320312 C 206.5 182.835938 204.980469 182.726562 203.710938 182.019531 C 202.441406 181.3125 201.550781 180.078125 201.28125 178.652344 L 184.003906 176.113281 L 190.050781 169.359375 L 205.527344 172.804688 C 208.011719 172.503906 210.332031 174.101562 210.925781 176.53125 C 211.519531 178.957031 210.203125 181.445312 207.859375 182.320312 Z M 207.859375 182.320312 "/>
<path style=" stroke:none;fill-rule:nonzero;fill:rgb(61.960784%,38.039216%,41.568627%);fill-opacity:1;" d="M 141.453125 371.210938 L 148.835938 371.210938 L 152.347656 342.789062 L 141.453125 342.789062 Z M 141.453125 371.210938 "/>
<path style=" stroke:none;fill-rule:nonzero;fill:rgb(18.431373%,18.039216%,25.490196%);fill-opacity:1;" d="M 139.570312 368.804688 L 141.648438 368.804688 L 149.761719 365.511719 L 154.109375 368.804688 C 159.226562 368.804688 163.375 372.945312 163.375 378.050781 L 163.375 378.351562 L 139.570312 378.355469 Z M 139.570312 368.804688 "/>
<path style=" stroke:none;fill-rule:nonzero;fill:rgb(61.960784%,38.039216%,41.568627%);fill-opacity:1;" d="M 96.921875 371.210938 L 104.304688 371.210938 L 107.816406 342.789062 L 96.921875 342.789062 Z M 96.921875 371.210938 "/>
<path style=" stroke:none;fill-rule:nonzero;fill:rgb(18.431373%,18.039216%,25.490196%);fill-opacity:1;" d="M 95.039062 368.804688 L 97.117188 368.804688 L 105.230469 365.511719 L 109.578125 368.804688 C 114.695312 368.804688 118.84375 372.945312 118.84375 378.050781 L 118.84375 378.351562 L 95.039062 378.355469 Z M 95.039062 368.804688 "/>
<path style=" stroke:none;fill-rule:nonzero;fill:rgb(18.431373%,18.039216%,25.490196%);fill-opacity:1;" d="M 99.769531 231.246094 L 94.890625 260.605469 L 96.53125 354.976562 L 108.539062 354.976562 L 126.988281 255.152344 L 140.261719 353.335938 L 152.335938 352.816406 L 158.363281 253.707031 L 152.945312 228.410156 Z M 99.769531 231.246094 "/>
<path style=" stroke:none;fill-rule:nonzero;fill:rgb(79.215686%,79.215686%,79.215686%);fill-opacity:1;" d="M 143.894531 143.9375 L 131.039062 142.050781 L 128.308594 134.964844 L 110.199219 134.941406 L 106.128906 144.1875 L 87.625 149.765625 L 102.957031 202.332031 C 102.957031 202.332031 94.507812 221.867188 96.585938 221.953125 C 98.664062 222.035156 99.6875 225.003906 98.238281 226.5625 C 96.789062 228.117188 93.882812 227.128906 95.335938 229.496094 C 96.167969 230.777344 96.726562 232.214844 96.972656 233.722656 C 96.972656 233.722656 158.285156 246.789062 154.890625 229.941406 C 154.46875 227.847656 149.34375 198.828125 149.34375 198.828125 C 149.34375 198.828125 153.804688 193.902344 151.898438 191.945312 C 149.992188 189.984375 151 169.304688 151 169.304688 Z M 143.894531 143.9375 "/>
<path style=" stroke:none;fill-rule:nonzero;fill:rgb(79.215686%,79.215686%,79.215686%);fill-opacity:1;" d="M 141.789062 146.238281 L 143.894531 143.941406 L 172.472656 160.667969 L 196.65625 170.292969 L 197.125 178.714844 L 165.71875 174.972656 L 143.488281 164.125 Z M 141.789062 146.238281 "/>
<path style=" stroke:none;fill-rule:nonzero;fill:rgb(61.960784%,38.039216%,41.568627%);fill-opacity:1;" d="M 133.84375 114.652344 C 133.84375 122.996094 127.070312 129.753906 118.714844 129.753906 C 117.523438 129.753906 116.335938 129.617188 115.175781 129.34375 C 107.496094 127.503906 102.523438 120.074219 103.761719 112.289062 C 104.996094 104.503906 112.023438 98.972656 119.894531 99.59375 C 127.769531 100.210938 133.84375 106.769531 133.84375 114.652344 Z M 133.84375 114.652344 "/>
<path style=" stroke:none;fill-rule:nonzero;fill:rgb(18.431373%,18.039216%,25.490196%);fill-opacity:1;" d="M 122.765625 126.898438 L 111.898438 128.992188 C 110.886719 129.265625 109.828125 129.308594 108.796875 129.121094 C 107.179688 128.695312 106.097656 127.207031 105.269531 125.757812 C 101.433594 118.964844 100.222656 111.007812 101.875 103.386719 C 102.246094 101.703125 103.039062 99.777344 104.730469 99.433594 C 105.21875 99.335938 105.777344 99.375 106.164062 99.058594 C 106.738281 98.59375 106.546875 97.609375 105.984375 97.128906 C 105.375 96.710938 104.652344 96.476562 103.910156 96.457031 C 104.882812 95.320312 106.292969 94.648438 107.789062 94.617188 L 104.882812 93.003906 C 106.28125 92.035156 108.164062 92.125 109.816406 92.542969 C 111.46875 92.960938 113.054688 93.671875 114.753906 93.828125 C 116.882812 94.027344 118.984375 93.34375 121.109375 93.082031 C 127.578125 92.382812 133.863281 95.503906 137.203125 101.078125 C 137.777344 101.988281 138.144531 103.015625 138.269531 104.085938 C 138.390625 105.167969 137.988281 106.246094 137.1875 106.988281 C 136 107.988281 134.125 107.839844 132.972656 108.882812 C 132.085938 109.6875 131.863281 110.980469 131.8125 112.175781 C 131.761719 113.371094 131.820312 114.621094 131.304688 115.703125 C 130.792969 116.785156 129.453125 117.597656 128.382812 117.058594 C 128.335938 115.578125 126.625 114.53125 125.175781 114.835938 C 123.722656 115.140625 122.648438 116.460938 122.230469 117.882812 C 121.816406 119.300781 121.9375 120.820312 122.121094 122.292969 C 122.300781 123.761719 122.539062 125.25 122.335938 126.714844 "/>
<path style=" stroke:none;fill-rule:nonzero;fill:rgb(9.803922%,52.941176%,32.941176%);fill-opacity:1;" d="M 222.3125 191.382812 C 222.3125 193.5625 220.542969 195.332031 218.359375 195.332031 C 216.171875 195.332031 214.402344 193.5625 214.402344 191.382812 C 214.402344 189.203125 216.171875 187.4375 218.359375 187.4375 C 220.542969 187.4375 222.3125 189.203125 222.3125 191.382812 Z M 222.3125 191.382812 "/>
<path style=" stroke:none;fill-rule:nonzero;fill:rgb(79.215686%,79.215686%,79.215686%);fill-opacity:1;" d="M 303.976562 379.0625 L 0.558594 379.0625 C 0.25 379.0625 0 378.8125 0 378.507812 C 0 378.199219 0.25 377.949219 0.558594 377.949219 L 303.976562 377.949219 C 304.285156 377.949219 304.535156 378.199219 304.535156 378.507812 C 304.535156 378.8125 304.285156 379.0625 303.976562 379.0625 Z M 303.976562 379.0625 "/>
</g>
</svg>
